<svg xmlns="http://www.w3.org/2000/svg" xmlns:xlink="http://www.w3.org/1999/xlink" width="64" height="64" viewBox="0 0 64 64">
  <defs>
    <path id="4-a" d="M61.8777673,49.2557245 C58.7975822,61.6505057 50.647926,66.2305285 37.4287986,62.9957929 C24.2096713,59.7610573 13.6375779,53.5636667 5.71251848,44.4036211 C-2.2125409,35.2435755 -1.89168829,26.6125754 6.6750763,18.5106208 C15.2418409,10.4086662 25.5412096,4.63451207 37.5731823,1.18815827 C49.6051551,-2.25819554 57.4339587,1.79278174 61.0595931,13.3410901 C64.6852276,24.8893985 64.9579523,36.8609432 61.8777673,49.2557245 Z"/>
    <filter id="4-c" color-interpolation-filters="auto">
      <feColorMatrix in="SourceGraphic" values="0 0 0 0 0.000000 0 0 0 0 0.427451 0 0 0 0 0.458824 0 0 0 1.000000 0"/>
    </filter>
  </defs>
  <g fill="none" fill-rule="evenodd">
    <mask id="4-b" fill="#fff">
      <use xlink:href="#4-a"/>
    </mask>
    <path fill="#E5F4E3" fill-rule="nonzero" d="M61.8777673,49.2557245 C58.7975822,61.6505057 50.647926,66.2305285 37.4287986,62.9957929 C24.2096713,59.7610573 13.6375779,53.5636667 5.71251848,44.4036211 C-2.2125409,35.2435755 -1.89168829,26.6125754 6.6750763,18.5106208 C15.2418409,10.4086662 25.5412096,4.63451207 37.5731823,1.18815827 C49.6051551,-2.25819554 57.4339587,1.79278174 61.0595931,13.3410901 C64.6852276,24.8893985 64.9579523,36.8609432 61.8777673,49.2557245 Z" mask="url(#4-b)"/>
    <g filter="url(#4-c)">
      <g transform="translate(16 16)">
        <rect width="6" height="2" x="8" y="14" fill="#000" fill-rule="nonzero"/>
        <rect width="12" height="2" x="8" y="6" fill="#000" fill-rule="nonzero"/>
        <rect width="12" height="2" x="8" y="10" fill="#000" fill-rule="nonzero"/>
        <rect width="6" height="2" x="8" y="24" fill="#000" fill-rule="nonzero"/>
        <path fill="#000" fill-rule="nonzero" d="M27 25L21 25C19.3431458 25 18 26.3431458 18 28L18 30 20 30 20 28C20 27.4477153 20.4477153 27 21 27L27 27C27.5522847 27 28 27.4477153 28 28L28 30 30 30 30 28C30 26.3431458 28.6568542 25 27 25L27 25zM24 24C26.209139 24 28 22.209139 28 20 28 17.790861 26.209139 16 24 16 21.790861 16 20 17.790861 20 20 20 22.209139 21.790861 24 24 24zM24 18C25.1045695 18 26 18.8954305 26 20 26 21.1045695 25.1045695 22 24 22 22.8954305 22 22 21.1045695 22 20 22 18.8954305 22.8954305 18 24 18z"/>
        <path fill="#000" fill-rule="nonzero" d="M14,30 L6,30 C4.8959103,29.9988425 4.00115747,29.1040897 4,28 L4,4 C4.00115747,2.8959103 4.8959103,2.00115747 6,2 L22,2 C23.1040897,2.00115747 23.9988425,2.8959103 24,4 L24,14 L22,14 L22,4 L6,4 L6,28 L14,28 L14,30 Z"/>
        <rect width="32" height="32"/>
      </g>
    </g>
  </g>
</svg>
