<svg height="64" viewBox="0 0 64 64" width="64" xmlns="http://www.w3.org/2000/svg" xmlns:xlink="http://www.w3.org/1999/xlink"><filter id="a" color-interpolation-filters="auto"><feColorMatrix in="SourceGraphic" type="matrix" values="0 0 0 0 0.000000 0 0 0 0 0.427451 0 0 0 0 0.458824 0 0 0 1.000000 0"/></filter><mask id="b" fill="#fff"><path d="m59.0222132 49.5622349c-7.0943261 12.7860372-16.1018858 17.0796201-27.0226792 12.8807486-10.9207933-4.1988715-19.8305965-10.5918901-26.72940971-19.1790558-6.89881317-8.5871658-7.02450005-17.41111-.37706064-26.4718327 6.64743945-9.06072264 15.06846035-14.52241262 25.26306285-16.38506989 10.1946024-1.86265728 19.327849 2.66770406 27.3997397 13.59108399 8.0718908 10.92338 8.5606731 22.7780886 1.466347 35.5641258z" fill="#fff" fill-rule="evenodd"/></mask><g fill="none" fill-rule="evenodd"><path d="m59.0222132 49.5622349c-7.0943261 12.7860372-16.1018858 17.0796201-27.0226792 12.8807486-10.9207933-4.1988715-19.8305965-10.5918901-26.72940971-19.1790558-6.89881317-8.5871658-7.02450005-17.41111-.37706064-26.4718327 6.64743945-9.06072264 15.06846035-14.52241262 25.26306285-16.38506989 10.1946024-1.86265728 19.327849 2.66770406 27.3997397 13.59108399 8.0718908 10.92338 8.5606731 22.7780886 1.466347 35.5641258z" fill="#e5f4e3" fill-rule="nonzero" mask="url(#b)"/><g filter="url(#a)"><g transform="translate(16 16)"><g fill="#000" fill-rule="nonzero"><path d="m26 2h-18c-1.1045695 0-2 .8954305-2 2v4h-2v2h2v5h-2v2h2v5h-2v2h2v4c0 1.1045695.8954305 2 2 2h18c1.1045695 0 2-.8954305 2-2v-24c0-1.1045695-.8954305-2-2-2zm0 26h-18v-4h2v-2h-2v-5h2v-2h-2v-5h2v-2h-2v-4h18z"/><path d="m14 8h8v2h-8z"/><path d="m14 15h8v2h-8z"/><path d="m14 22h8v2h-8z"/></g><path d="m0 0h32v32h-32z"/></g></g></g></svg>