<svg height="64" viewBox="0 0 64 64" width="64" xmlns="http://www.w3.org/2000/svg" xmlns:xlink="http://www.w3.org/1999/xlink"><filter id="a" color-interpolation-filters="auto"><feColorMatrix in="SourceGraphic" type="matrix" values="0 0 0 0 0.000000 0 0 0 0 0.427451 0 0 0 0 0.458824 0 0 0 1.000000 0"/></filter><mask id="b" fill="#fff"><path d="m59.2294378 47.1967412c-6.9587688 10.7776573-16.8616321 16.3714958-29.7085899 16.7815153-12.8469578.4100196-21.53054961-4.978809-26.0507755-16.1664859s-4.62431004-22.5510765-.31225245-34.0901987c4.31205759-11.53912222 12.34140625-15.80039706 24.08804585-12.78382449 11.7466396 3.01657256 21.7535871 8.78613367 30.0208423 17.30868329 8.2672553 8.5225497 8.9214985 18.1726532 1.9627297 28.9503105z" fill="#fff" fill-rule="evenodd"/></mask><g fill="none" fill-rule="evenodd"><path d="m59.2294378 47.1967412c-6.9587688 10.7776573-16.8616321 16.3714958-29.7085899 16.7815153-12.8469578.4100196-21.53054961-4.978809-26.0507755-16.1664859s-4.62431004-22.5510765-.31225245-34.0901987c4.31205759-11.53912222 12.34140625-15.80039706 24.08804585-12.78382449 11.7466396 3.01657256 21.7535871 8.78613367 30.0208423 17.30868329 8.2672553 8.5225497 8.9214985 18.1726532 1.9627297 28.9503105z" fill="#e5f4e3" fill-rule="nonzero" mask="url(#b)" transform="translate(.367076 -.108493)"/><g filter="url(#a)"><g transform="translate(16 16)"><g fill="#000" fill-rule="nonzero"><path d="m19 24h4v4h-4z"/><path d="m26 24h4v4h-4z"/><path d="m19 17h4v4h-4z"/><path d="m26 17h4v4h-4z"/><path d="m17 24h-13v-14h24v5h2v-5c-.0012675-1.10404407-.8959559-1.99873253-2-2h-6v-4c-.0012675-1.10404407-.8959559-1.99873253-2-2h-8c-1.1041125.00110246-1.9988975.89588748-2 2v4h-6c-1.10411252.00110246-1.99889754.89588748-2 2v14c.00126747 1.1040441.89595593 1.9987325 2 2h13zm-5-20h8v4h-8z"/></g><path d="m0 0h32v32h-32z"/></g></g></g></svg>